<?xml version="1.0" encoding="UTF-8" standalone="no"?>
<svg
   xmlns:dc="http://purl.org/dc/elements/1.1/"
   xmlns:cc="http://creativecommons.org/ns#"
   xmlns:rdf="http://www.w3.org/1999/02/22-rdf-syntax-ns#"
   xmlns:svg="http://www.w3.org/2000/svg"
   xmlns="http://www.w3.org/2000/svg"
   xmlns:xlink="http://www.w3.org/1999/xlink"

   version="1.1"
   id="svg34"
   width="3109.8591"
   height="811.26764"
   viewBox="0 0 3109.8591 811.26764"
>

    <g
       id="g46">

      <path
         style="fill:#034388;stroke-width:3.38028"
         d="M 58.34409,789.43416 C 45.199672,783.3145 38.044218,777.10759 30.598052,765.36618 17.495197,744.70512 15.095946,726.44464 20.017514,684.83861 36.37923,546.51967 61.837013,340.77324 65.97464,313.41923 71.8611,274.50358 72.058153,274.08467 139.46752,157.18311 223.59564,11.287825 221.68478,14.201952 235.95159,10.04165 244.51333,7.5449898 322.45634,6.7203245 483.38027,7.4237655 l 234.92958,1.0269391 14.06592,8.0593264 c 21.08025,12.078294 29.42069,25.400326 30.931,49.405465 1.82539,29.012864 -18.74018,190.106054 -25.84699,202.463564 -11.94564,20.77138 -20.12822,23.7219 -69.13196,24.92804 -25.55503,0.62898 -46.76136,-0.31738 -49.56352,-2.21182 -4.24634,-2.87084 -4.07895,-6.78393 1.25869,-29.42493 3.38596,-14.36256 6.30946,-39.94496 6.49663,-56.84979 0.28293,-25.55396 -0.91075,-33.10431 -7.07987,-44.78272 -19.67412,-37.24389 -62.06545,-44.40142 -114.51616,-19.3354 -27.1267,12.96376 -66.1148,52.67309 -85.58106,87.16416 -41.41579,73.38213 -64.55473,200.16453 -50.68452,277.70978 5.53203,30.92843 27.69262,72.92174 48.324,91.57174 20.18525,18.24672 50.26658,33.3624 76.17005,38.27486 28.14094,5.33682 156.87295,4.30489 181.21413,-1.45264 11.15492,-2.63852 21.46134,-3.64074 22.90316,-2.22714 3.38782,3.32157 -9.93025,89.03815 -16.67101,107.2965 -7.78749,21.09354 -22.64815,36.81033 -45.69397,48.32647 l -20.77291,10.38034 -269.03756,-0.0338 -269.037563,-0.0338 -17.712247,-8.2463 z m 779.98989,2.92763 c -27.69367,-12.00953 -41.84427,-35.76213 -42.10256,-70.67162 -0.16462,-22.24499 7.29397,-89.62503 10.25628,-92.65427 0.7458,-0.76266 7.07007,0.32181 14.05386,2.41001 6.98383,2.08813 26.388,5.36163 43.1204,7.2744 39.38302,4.50209 255.56864,4.45443 275.15514,-0.0605 31.9741,-7.3707 46.9625,-28.98237 49.8627,-71.89684 1.8594,-27.51302 -3.6034,-42.23533 -20.1892,-54.40982 -9.2228,-6.76983 -14.5207,-7.05661 -160.5633,-8.69098 -141.16853,-1.57984 -151.64392,-2.10899 -160.49445,-8.1076 -13.0152,-8.82125 -19.27494,-22.37619 -19.20358,-41.58369 C 828.35366,420.45041 847.6043,285.13731 854.39765,270.0313 866.19051,243.80808 993.82082,25.648172 1002.4864,16.901409 l 8.3723,-8.4507044 h 242.458 242.4579 l 14.0816,7.5291064 c 15.9267,8.515739 27.2427,22.624742 32.0186,39.921681 3.176,11.502538 1.6605,27.401197 -15.938,167.197108 -5.1199,40.67048 -8.6916,49.10992 -26.3698,62.30863 -8.2316,6.14573 -15.0658,7.06913 -58.9461,7.96447 -27.2993,0.55701 -51.5802,-0.31241 -53.9577,-1.93208 -3.4874,-2.37578 -3.3337,-7.14036 0.7951,-24.657 7.5654,-32.09616 6.7248,-75.52513 -1.8269,-94.38825 -14.7975,-32.63986 -35.8899,-45.28381 -75.7723,-45.42202 -35.9068,-0.12443 -63.3341,12.22714 -92.1584,41.50244 -54.6415,55.49649 -76.2637,164.38345 -39.1812,197.31179 19.0422,16.90899 25.4427,17.68973 160.072,19.52641 112.7532,1.53819 127.9682,2.38928 137.6893,7.702 24.565,13.42516 25.7928,29.75838 10.8654,144.54214 -5.6751,43.63937 -12.5685,97.59783 -15.3186,119.90769 -9.9892,81.03627 -14.4137,95.31691 -35.7568,115.41025 -6.2051,5.84184 -17.6863,13.82776 -25.5136,17.74648 -14.129,7.07365 -16.1989,7.12402 -287.324,6.99266 -236.27549,-0.11459 -274.68411,-0.82259 -284.89922,-5.25242 z m 771.11682,-3.48145 c -23.4653,-11.69324 -34.2311,-27.91386 -36.7162,-55.31963 -2.3637,-26.06732 5.5348,-101.53657 10.8397,-103.57224 2.146,-0.82354 12.931,1.05478 23.9666,4.17397 16.7151,4.72455 42.1271,5.93131 152.2217,7.22863 94.3459,1.11174 137.6829,0.41013 151.471,-2.45229 36.0422,-7.48233 52.71,-32.33135 52.71,-78.58202 0,-27.37606 -5.7003,-40.56984 -21.184,-49.0319 -9.8342,-5.37459 -25.8236,-6.14198 -159.661,-7.66287 -167.3723,-1.90195 -164.2213,-1.42137 -175.6615,-26.79123 -5.9495,-13.19361 -5.968,-15.63928 -0.4688,-61.92315 10.8068,-90.9541 15.7666,-123.95943 20.7505,-138.08545 5.8253,-16.51059 138.1018,-247.039661 149.0637,-259.785457 l 7.4187,-8.6259984 237.5278,-0.9127008 c 262.9053,-1.0102145 258.4572,-1.335331 279.4459,20.4251482 21.2863,22.069133 21.4822,26.557836 6.3766,146.142208 -15.038,119.04988 -13.8374,117.49061 -91.7769,119.19037 -26.3167,0.57393 -49.4636,-0.39901 -52.1439,-2.1918 -4.1732,-2.79123 -4.1732,-6.55003 0,-28.00897 2.6509,-13.6318 4.8136,-36.95411 4.8059,-51.82735 -0.014,-23.45813 -1.3049,-29.37493 -9.7533,-44.64232 -11.4896,-20.76311 -28.8602,-33.3631 -53.188,-38.58048 -38.2974,-8.2133 -76.3494,5.69171 -111.4129,40.71258 -36.9805,36.93552 -57.181,86.97081 -57.181,141.63342 0,36.10819 6.8773,49.91296 31.7293,63.6895 l 17.2848,9.58168 128.6095,1.69014 c 116.5465,1.5316 129.4817,2.26222 137.9079,7.78928 12.5929,8.26026 22.4687,25.32565 22.484,38.85256 0.01,9.58986 -14.8756,130.23955 -32.1502,260.56642 -7.5945,57.29581 -20.1098,80.03926 -53.0872,96.4726 l -17.4858,8.71352 h -272.4754 -272.4754 z m 782.0985,2.55972 c -18.7465,-8.53782 -36.6748,-29.54282 -42.2688,-49.52272 -4.29,-15.32235 -3.515,-26.20222 9.7409,-136.74684 7.921,-66.05503 15.7743,-129.22682 17.4517,-140.38175 1.6774,-11.15493 7.0968,-54.50704 12.0432,-96.33803 4.9464,-41.83099 11.5452,-82.90141 14.6641,-91.26761 3.1188,-8.3662 28.9185,-55.52113 57.3326,-104.78874 28.4142,-49.2676 60.0419,-104.171714 70.2839,-122.009126 11.1628,-19.441004 22.4167,-34.673369 28.096,-38.02817 8.5752,-5.0655279 31.8745,-5.5933775 245.5723,-5.5634887 l 236.0981,0.033025 17.168,7.9941577 c 31.6249,14.725913 41.243,36.243433 35.3629,79.113607 -1.9663,14.336095 -6.593,51.924785 -10.2816,83.530425 -3.6885,31.60564 -7.581,63.99377 -8.65,71.97363 -2.4471,18.26751 -17.7952,36.46333 -34.7224,41.16486 -14.6842,4.07852 -84.8755,4.57637 -91.0686,0.64592 -3.4607,-2.19636 -3.2962,-7.52471 0.8396,-27.18541 13.0408,-61.99406 9.9235,-96.15129 -10.8764,-119.17432 -20.6885,-22.8996 -56.0964,-25.25757 -97.206,-6.47336 -52.9613,24.19969 -91.3287,73.22668 -119.2553,152.38811 -24.381,69.11071 -34.5467,165.25187 -22.9737,217.27025 15.3583,69.03289 60.4466,114.79366 125.5816,127.45451 27.6939,5.38313 174.3539,2.89129 190.0573,-3.22915 6.1371,-2.39199 12.1259,-3.38163 13.3083,-2.19921 1.1825,1.18242 -1.7265,25.70924 -6.4643,54.504 -7.0317,42.73586 -10.4214,55.27724 -18.4512,68.2651 -11.575,18.72209 -33.4997,36.43041 -51.186,41.34233 -8.1926,2.2753 -105.8712,3.4774 -279.6329,3.44136 -251.0623,-0.0521 -267.8513,-0.42388 -280.5633,-6.21336 z"
         id="path48" />
    </g>

</svg>
