<?xml version="1.0" encoding="utf-8"?>
<!-- Generator: Adobe Illustrator 27.3.1, SVG Export Plug-In . SVG Version: 6.00 Build 0)  -->
<svg version="1.1" id="Layer_1" xmlns="http://www.w3.org/2000/svg" xmlns:xlink="http://www.w3.org/1999/xlink" x="0px" y="0px"
	 viewBox="0 0 168 21" style="enable-background:new 0 0 168 21;" xml:space="preserve">
<style type="text/css">
	.st0{fill:#1428A0;}
</style>
<g>
	<g>
		<g>
			<path class="st0" d="M4.5,5.4c0-1.4,0.9-2.1,2.2-2.1c1.7,0,2.2,1.7,2.1,3h3.9c0.2-3.6-1.7-6-6-6c-4.5,0-6.4,2.4-6.4,5.7
				c0,6,8.5,6.2,8.5,9.8c0,1.4-1,2.1-2.3,2.1c-1.9,0-2.5-1.6-2.4-3.4H0C-0.1,18.2,1.6,21,6.7,21c3,0,6.3-1.4,6.3-5.8
				C13.1,8.9,4.5,9.2,4.5,5.4z"/>
		</g>
		<g>
			<path class="st0" d="M58.3,5.4c0-1.4,0.9-2.1,2.2-2.1c1.7,0,2.2,1.7,2.1,3h3.9c0.2-3.6-1.7-6-6-6c-4.5,0-6.4,2.4-6.4,5.7
				c0,6,8.5,6.2,8.5,9.8c0,1.4-1,2.1-2.3,2.1c-1.9,0-2.5-1.6-2.4-3.4h-4.1c-0.1,3.7,1.6,6.5,6.7,6.5c3,0,6.3-1.4,6.3-5.8
				C66.8,8.9,58.3,9.2,58.3,5.4z"/>
		</g>
		<g>
			<polygon class="st0" points="41.5,14.8 41.5,14.8 38.4,0.6 31.6,0.6 31.6,20.6 35.7,20.6 35.7,5.2 35.7,5.2 39.4,20.6 43.6,20.6 
				47.3,5.2 47.3,5.2 47.3,20.6 51.4,20.6 51.4,0.6 44.7,0.6 			"/>
		</g>
		<g>
			<path class="st0" d="M78.2,15.1c0,2.5-1.6,2.9-2.6,2.9c-1,0-2.6-0.5-2.6-2.9V0.6h-4.2v14.2c0,3.7,2.3,6.1,6.8,6.1
				c4.5,0,6.8-2.4,6.8-6.1V0.6h-4.2V15.1z"/>
		</g>
		<g>
			<path class="st0" d="M109.3,3.2c2.2,0,2.5,1.6,2.5,3.5h4.2c0.2-4.2-2.3-6.5-6.4-6.5c-6.8,0-7.1,5.2-7.1,10.2
				c0,7.6,1.5,10.6,7.5,10.6c3.3,0,6-1,6-1v-9.8h-6.5v3.1h2.3v4.6c0,0-0.9,0.3-2.1,0.2c-2.2-0.1-3-1.6-3-7.4
				C106.7,6.8,106.7,3.2,109.3,3.2z"/>
		</g>
		<g>
			<polygon class="st0" points="96.1,15 91.1,0.6 85.6,0.6 85.6,20.6 89.5,20.6 89.5,6.2 94.4,20.6 100,20.6 100,0.6 96.1,0.6 			
				"/>
		</g>
		<g>
			<g>
				<path class="st0" d="M148.7,17.2c0.9-1.6,1.4-3.5,1.5-5.7l-2.9,0c0,0.6-0.2,2-0.6,3.2c-0.9-1.1-1.8-2.2-2.4-3.1
					c1.8-1.5,2.7-2.8,2.8-4.2c0.1-1-0.3-1.9-0.9-2.5c-0.8-0.8-2-1.3-3.5-1.3c-2.2,0-3.9,1.2-4.3,3.1c-0.3,1.7,0.5,2.9,1.7,4.4
					c-2.3,1.7-3.4,3.2-3.4,5.1c0,1.8,1.2,4.8,5.6,4.8c1.6,0,3.2-0.5,4.4-1.5l0.8,1.1h3.7L148.7,17.2z M142.7,6.1
					c0.8,0,1.2,0.5,1.2,1.3c0,0.7-0.4,1.3-1.4,2.1c-0.7-0.9-1.1-1.5-1.1-2.2C141.4,6.5,142,6.1,142.7,6.1z M142.6,18.1
					c-1.2,0-2.4-0.7-2.4-2.1c0-1.2,0.6-1.9,1.7-2.7c0.9,1.2,2.1,2.6,3.1,3.9C144.1,18,143.2,18.1,142.6,18.1z"/>
			</g>
		</g>
		<g>
			<g>
				<path class="st0" d="M19.3,0.6l-5.5,20h4.1l1.1-4.4h5.5l1.1,4.4h4.3l-5.5-20H19.3z M19.7,13.1l2-8.1l2,8.1H19.7z"/>
			</g>
		</g>
		<g>
			<polygon class="st0" points="123.9,20.6 135.7,20.6 135.7,17.4 128.1,17.4 128.1,12.3 134.4,12.3 134.4,9 128.1,9 128.1,3.9 
				135.7,3.9 135.7,0.6 123.9,0.6 			"/>
		</g>
		<g>
			<g>
				<path class="st0" d="M155.7,0.6l-5.5,20h4.1l1.1-4.4h5.5l1.1,4.4h4.3l-5.5-20H155.7z M156.2,13.1l2-8.1l2,8.1H156.2z"/>
			</g>
		</g>
	</g>
</g>
</svg>
